<svg width="200" height="34" viewBox="0 -3.5 200 34" fill="none" xmlns="http://www.w3.org/2000/svg">
<g id="Group 888">
<path id="Vector" d="M45.7211 0.464844H39.991V26.4987H45.7211V0.464844Z" fill="#D0661B"/>
<mask id="mask0_1_3740" style="mask-type:luminance" maskUnits="userSpaceOnUse" x="0" y="0" width="200" height="27">
<g id="clippath">
<path id="Vector_2" d="M200 0H0V26.9636H200V0Z" fill="white"/>
</g>
</mask>
<g mask="url(#mask0_1_3740)">
<g id="Group">
<path id="Vector_3" d="M61.4848 26.8775C57.1927 26.8775 53.5168 25.4828 50.4355 22.7151L53.8195 18.6608C56.4251 20.769 59.009 21.8177 61.5929 21.8177C62.7822 21.8177 63.7011 21.6015 64.3606 21.1691C65.0201 20.7366 65.3445 20.1312 65.3445 19.3636V19.2879C65.3445 18.5419 64.9985 17.9365 64.3066 17.4608C63.6146 16.9959 62.2092 16.4985 60.1009 15.9688C58.6414 15.6012 57.4305 15.2336 56.4899 14.8768C55.5493 14.5201 54.6628 14.0444 53.8519 13.4497C53.0303 12.8551 52.4357 12.1091 52.0464 11.2226C51.6572 10.3252 51.4734 9.26572 51.4734 8.02241V7.94673C51.4734 5.58984 52.3167 3.69785 54.0033 2.25993C55.6899 0.822019 57.8846 0.0976562 60.5874 0.0976562C64.2525 0.0976562 67.4851 1.20042 70.2636 3.40594L67.2905 7.71969C64.7823 6.01149 62.5335 5.14658 60.5226 5.14658C59.4306 5.14658 58.5981 5.3628 58.036 5.78445C57.463 6.20609 57.1819 6.74666 57.1819 7.41697V7.49265C57.1819 8.33594 57.5386 8.963 58.2414 9.37383C58.9441 9.78466 60.4685 10.2928 62.8038 10.9199C65.6256 11.6875 67.7122 12.6389 69.0528 13.7849C70.3934 14.9201 71.0637 16.5742 71.0637 18.7365V18.8122C71.0637 21.342 70.188 23.3205 68.4473 24.7476C66.7067 26.1747 64.3822 26.8883 61.5064 26.8883" fill="#D0661B"/>
<path id="Vector_4" d="M73.2365 26.4989L84.3939 0.28125H89.6806L100.838 26.4989H94.8485L92.47 20.6607H81.464L79.0855 26.4989H73.2473H73.2365ZM83.5073 15.601H90.4266L86.967 7.15729L83.5073 15.601Z" fill="#D0661B"/>
<path id="Vector_5" d="M107.573 26.4987V5.75162H99.6484V0.464844H121.217V5.75162H113.303V26.4987H107.573Z" fill="#D0661B"/>
<path id="Vector_6" d="M162.733 26.9527C158.917 26.9527 155.738 25.6661 153.197 23.0822C150.657 20.4983 149.381 17.3305 149.381 13.5574V13.4817C149.381 9.70849 150.657 6.52994 153.208 3.9244C155.76 1.31885 159.014 0.0214844 162.949 0.0214844C167.112 0.0214844 170.539 1.3621 173.209 4.04332L169.566 8.24896C167.36 6.29209 165.144 5.30826 162.906 5.30826C160.668 5.30826 158.949 6.09749 157.511 7.66514C156.073 9.2436 155.36 11.1572 155.36 13.4168V13.4925C155.36 15.7737 156.073 17.7089 157.5 19.2982C158.927 20.8875 160.733 21.6767 162.917 21.6767C164.301 21.6767 165.512 21.428 166.539 20.9307C167.566 20.4334 168.636 19.6658 169.75 18.6279L173.393 22.3146C171.955 23.8822 170.409 25.0391 168.766 25.8175C167.112 26.5851 165.101 26.9743 162.722 26.9743" fill="#D0661B"/>
<path id="Vector_7" d="M177.977 26.4987V0.464844H183.708V10.7681H194.27V0.464844H200V26.4987H194.27V16.0549H183.708V26.4987H177.977Z" fill="#D0661B"/>
<path id="Vector_8" d="M125.607 10.8438H143.575V15.9359H131.304V21.4065H145.435V26.4987H125.607V10.8438ZM125.607 0.464844H145.251V5.55701H125.607V0.464844Z" fill="#D0661B"/>
<path id="Vector_9" d="M0 13.4818C0 6.03276 6.03276 0 13.4818 0C20.9309 0 26.9636 6.03276 26.9636 13.4818C26.9636 20.9309 20.9309 26.9636 13.4818 26.9636C6.03276 26.9636 0 20.9309 0 13.4818ZM13.4818 3.67587C8.05449 3.67587 3.64344 8.08692 3.64344 13.5142C3.64344 16.6604 5.15704 19.6335 7.70852 21.4822C8.29234 21.9039 9.11401 21.7741 9.53565 21.1903C9.95729 20.6065 9.82756 19.7849 9.24374 19.3632C7.37337 18.0118 6.2598 15.8171 6.2598 13.5142C6.2598 9.53565 9.50322 6.29223 13.4818 6.29223C17.4604 6.29223 20.7038 9.53565 20.7038 13.5142C20.7038 15.8279 19.6443 17.9361 17.7847 19.32C17.2009 19.7524 17.082 20.5741 17.5145 21.1471C17.9469 21.7309 18.7686 21.8498 19.3416 21.4174C21.8282 19.5686 23.3202 16.6171 23.3202 13.5142C23.3202 8.08692 18.9091 3.67587 13.4818 3.67587ZM13.4386 16.4225C15.0603 16.4225 16.3793 15.1035 16.3793 13.4818C16.3793 11.8601 15.0603 10.5411 13.4386 10.5411C11.8169 10.5411 10.4979 11.8601 10.4979 13.4818C10.4979 15.1035 11.8169 16.4225 13.4386 16.4225Z" fill="#D0661B"/>
</g>
</g>
</g>
</svg>
